<mxfile host="app.diagrams.net" modified="2023-02-04T20:11:50.927Z" agent="5.0 (Windows NT 10.0; Win64; x64) AppleWebKit/537.36 (KHTML, like Gecko) Chrome/109.0.0.0 Safari/537.36" etag="JO-o4X_jCjg-rPzZYWO6" version="20.8.16" type="github">
  <diagram id="2f404044-711c-603c-8f00-f6bb4c023d3c" name="Page-1">
    <mxGraphModel dx="880" dy="427" grid="1" gridSize="10" guides="1" tooltips="1" connect="1" arrows="1" fold="1" page="1" pageScale="1" pageWidth="1169" pageHeight="827" background="#ffffff" math="0" shadow="0">
      <root>
        <mxCell id="0" />
        <mxCell id="1" parent="0" />
        <mxCell id="21" value="" style="swimlane;shadow=0;strokeColor=#4277BB;fillColor=#ffffff;fontColor=none;align=right;startSize=0;collapsible=0;noLabel=1;strokeWidth=3;" parent="1" vertex="1">
          <mxGeometry x="65" y="49" width="1535" height="931" as="geometry" />
        </mxCell>
        <mxCell id="22" value="Public Network" style="text;html=1;align=left;verticalAlign=middle;fontColor=#4277BB;shadow=0;dashed=0;strokeColor=none;fillColor=none;labelBackgroundColor=none;fontStyle=1;fontSize=14;spacingLeft=5;" parent="21" vertex="1">
          <mxGeometry y="10" width="150" height="20" as="geometry" />
        </mxCell>
        <mxCell id="44" value="" style="line;strokeWidth=3;direction=south;html=1;shadow=0;labelBackgroundColor=none;fillColor=none;gradientColor=none;fontSize=12;fontColor=#4277BB;align=right;strokeColor=#4277BB;" parent="21" vertex="1">
          <mxGeometry x="225" width="10" height="930" as="geometry" />
        </mxCell>
        <mxCell id="48" value="Cygnet Data Center" style="text;html=1;align=left;verticalAlign=middle;fontColor=#4277BB;shadow=0;dashed=0;strokeColor=none;fillColor=none;labelBackgroundColor=none;fontStyle=1;fontSize=14;spacingLeft=5;" parent="21" vertex="1">
          <mxGeometry x="230" y="10" width="150" height="20" as="geometry" />
        </mxCell>
        <mxCell id="lown9K5yKBKj89JTiUl6-62" style="edgeStyle=orthogonalEdgeStyle;comic=0;html=1;exitX=1;exitY=0.5;entryX=0;entryY=0.25;startArrow=none;startFill=1;endArrow=classic;endFill=1;jettySize=auto;orthogonalLoop=1;strokeColor=#4378BB;strokeWidth=2;fontFamily=Helvetica;fontSize=19;fontColor=#CC99FF;endSize=4;startSize=4;" parent="21" source="lown9K5yKBKj89JTiUl6-67" edge="1">
          <mxGeometry relative="1" as="geometry">
            <Array as="points">
              <mxPoint x="175" y="173" />
              <mxPoint x="175" y="268" />
            </Array>
            <mxPoint x="203.1671842700025" y="267.58359213500125" as="targetPoint" />
          </mxGeometry>
        </mxCell>
        <mxCell id="lown9K5yKBKj89JTiUl6-63" value="USER" style="aspect=fixed;perimeter=ellipsePerimeter;html=1;align=center;shadow=0;dashed=0;image;image=img/lib/ibm/users/user.svg;labelBackgroundColor=#ffffff;strokeColor=#666666;strokeWidth=3;fillColor=#C2952D;gradientColor=none;fontSize=12;fontColor=#4277BB;" parent="21" vertex="1">
          <mxGeometry x="75" y="61" width="60" height="60" as="geometry" />
        </mxCell>
        <mxCell id="lown9K5yKBKj89JTiUl6-65" value="" style="image;html=1;image=img/lib/clip_art/networking/Firewall-page1_128x128.png" parent="21" vertex="1">
          <mxGeometry x="194" y="222" width="80" height="80" as="geometry" />
        </mxCell>
        <mxCell id="lown9K5yKBKj89JTiUl6-66" value="&lt;span style=&quot;color: rgb(66 , 119 , 187) ; background-color: rgb(255 , 255 , 255)&quot;&gt;FIREWALL&lt;/span&gt;" style="text;html=1;strokeColor=none;fillColor=none;align=center;verticalAlign=middle;whiteSpace=wrap;rounded=0;" parent="21" vertex="1">
          <mxGeometry x="210" y="305" width="40" height="10" as="geometry" />
        </mxCell>
        <mxCell id="lown9K5yKBKj89JTiUl6-67" value="" style="outlineConnect=0;dashed=0;verticalLabelPosition=bottom;verticalAlign=top;align=center;html=1;shape=mxgraph.aws3.internet_gateway;fillColor=#F58536;gradientColor=none;" parent="21" vertex="1">
          <mxGeometry x="135" y="137" width="69" height="72" as="geometry" />
        </mxCell>
        <mxCell id="lown9K5yKBKj89JTiUl6-68" value="" style="edgeStyle=orthogonalEdgeStyle;comic=0;html=1;exitX=1;exitY=0.5;entryX=0.5;entryY=0;startArrow=classic;startFill=1;endArrow=none;endFill=1;jettySize=auto;orthogonalLoop=1;strokeColor=#4378BB;strokeWidth=2;fontFamily=Helvetica;fontSize=19;fontColor=#CC99FF;endSize=4;startSize=4;entryDx=0;entryDy=0;entryPerimeter=0;" parent="21" source="lown9K5yKBKj89JTiUl6-63" target="lown9K5yKBKj89JTiUl6-67" edge="1">
          <mxGeometry relative="1" as="geometry">
            <Array as="points" />
            <mxPoint x="155.00000000000682" y="91" as="sourcePoint" />
            <mxPoint x="223.16718427000228" y="267.58359213500125" as="targetPoint" />
          </mxGeometry>
        </mxCell>
        <mxCell id="lown9K5yKBKj89JTiUl6-71" value="&lt;span style=&quot;color: rgb(66 , 119 , 187) ; background-color: rgb(255 , 255 , 255)&quot;&gt;INTERNET&lt;/span&gt;" style="text;html=1;strokeColor=none;fillColor=none;align=center;verticalAlign=middle;whiteSpace=wrap;rounded=0;" parent="21" vertex="1">
          <mxGeometry x="170" y="215" width="40" height="10" as="geometry" />
        </mxCell>
        <mxCell id="lown9K5yKBKj89JTiUl6-100" value="" style="swimlane;shadow=0;strokeColor=#BB6A0D;fillColor=#ffffff;fontColor=#4277BB;align=right;startSize=0;collapsible=0;strokeWidth=1;" parent="21" vertex="1">
          <mxGeometry x="415" y="60" width="1065" height="490" as="geometry" />
        </mxCell>
        <mxCell id="lown9K5yKBKj89JTiUl6-107" style="edgeStyle=orthogonalEdgeStyle;curved=1;orthogonalLoop=1;jettySize=auto;html=1;entryX=0.5;entryY=0;entryDx=0;entryDy=0;strokeColor=#000000;exitX=0.5;exitY=1;exitDx=0;exitDy=0;exitPerimeter=0;entryPerimeter=0;" parent="lown9K5yKBKj89JTiUl6-100" source="lown9K5yKBKj89JTiUl6-118" target="lown9K5yKBKj89JTiUl6-232" edge="1">
          <mxGeometry relative="1" as="geometry">
            <mxPoint x="136.97536891286973" y="213.0369466306954" as="targetPoint" />
          </mxGeometry>
        </mxCell>
        <mxCell id="lown9K5yKBKj89JTiUl6-108" value="Reverse Proxy" style="text;html=1;align=left;verticalAlign=top;fontColor=#4277BB;shadow=0;dashed=0;strokeColor=none;fillColor=none;labelBackgroundColor=none;fontStyle=0;fontSize=14;spacingLeft=5;" parent="lown9K5yKBKj89JTiUl6-100" vertex="1">
          <mxGeometry x="227" y="10" width="120" height="24" as="geometry" />
        </mxCell>
        <mxCell id="lown9K5yKBKj89JTiUl6-113" style="edgeStyle=orthogonalEdgeStyle;curved=1;orthogonalLoop=1;jettySize=auto;html=1;exitX=0.5;exitY=1;exitDx=0;exitDy=0;exitPerimeter=0;entryX=0.373;entryY=-0.05;entryDx=0;entryDy=0;entryPerimeter=0;strokeColor=#000000;" parent="lown9K5yKBKj89JTiUl6-100" source="lown9K5yKBKj89JTiUl6-118" edge="1">
          <mxGeometry relative="1" as="geometry">
            <mxPoint x="432.66600000000017" y="212" as="targetPoint" />
          </mxGeometry>
        </mxCell>
        <mxCell id="lown9K5yKBKj89JTiUl6-114" style="edgeStyle=orthogonalEdgeStyle;orthogonalLoop=1;jettySize=auto;html=1;exitX=0.5;exitY=1;exitDx=0;exitDy=0;exitPerimeter=0;entryX=0.25;entryY=0;entryDx=0;entryDy=0;strokeColor=#000000;curved=1;" parent="lown9K5yKBKj89JTiUl6-100" source="lown9K5yKBKj89JTiUl6-118" target="lown9K5yKBKj89JTiUl6-135" edge="1">
          <mxGeometry relative="1" as="geometry" />
        </mxCell>
        <mxCell id="lown9K5yKBKj89JTiUl6-115" style="edgeStyle=orthogonalEdgeStyle;curved=1;orthogonalLoop=1;jettySize=auto;html=1;exitX=0.5;exitY=1;exitDx=0;exitDy=0;exitPerimeter=0;strokeColor=#000000;entryX=0.333;entryY=-0.006;entryDx=0;entryDy=0;entryPerimeter=0;" parent="lown9K5yKBKj89JTiUl6-100" source="lown9K5yKBKj89JTiUl6-118" target="lown9K5yKBKj89JTiUl6-137" edge="1">
          <mxGeometry relative="1" as="geometry">
            <Array as="points">
              <mxPoint x="280" y="140" />
              <mxPoint x="810" y="140" />
              <mxPoint x="810" y="214" />
            </Array>
            <mxPoint x="824" y="217" as="targetPoint" />
          </mxGeometry>
        </mxCell>
        <mxCell id="lown9K5yKBKj89JTiUl6-116" style="edgeStyle=orthogonalEdgeStyle;curved=1;orthogonalLoop=1;jettySize=auto;html=1;exitX=0.5;exitY=1;exitDx=0;exitDy=0;exitPerimeter=0;strokeColor=#000000;" parent="lown9K5yKBKj89JTiUl6-100" source="lown9K5yKBKj89JTiUl6-118" edge="1">
          <mxGeometry relative="1" as="geometry">
            <Array as="points">
              <mxPoint x="280" y="130" />
              <mxPoint x="955" y="130" />
            </Array>
            <mxPoint x="955" y="211" as="targetPoint" />
          </mxGeometry>
        </mxCell>
        <mxCell id="lown9K5yKBKj89JTiUl6-118" value="" style="html=1;dashed=0;whitespace=wrap;fillColor=#2875E2;strokeColor=#ffffff;points=[[0.005,0.63,0],[0.1,0.2,0],[0.9,0.2,0],[0.5,0,0],[0.995,0.63,0],[0.72,0.99,0],[0.5,1,0],[0.28,0.99,0]];shape=mxgraph.kubernetes.icon;prIcon=ing" parent="lown9K5yKBKj89JTiUl6-100" vertex="1">
          <mxGeometry x="220" y="32" width="120" height="79" as="geometry" />
        </mxCell>
        <mxCell id="lown9K5yKBKj89JTiUl6-123" value="" style="html=1;labelBackgroundColor=#ffffff;startArrow=classic;startFill=1;startSize=6;endArrow=classic;endFill=1;endSize=6;jettySize=auto;orthogonalLoop=1;strokeWidth=1;fontSize=14;entryX=0.5;entryY=1;entryDx=0;entryDy=0;curved=1;exitX=0.25;exitY=0;exitDx=0;exitDy=0;entryPerimeter=0;" parent="lown9K5yKBKj89JTiUl6-100" target="lown9K5yKBKj89JTiUl6-118" edge="1">
          <mxGeometry width="60" height="60" relative="1" as="geometry">
            <mxPoint x="261.0246310871303" y="213.03694663069564" as="sourcePoint" />
            <mxPoint x="390" y="290" as="targetPoint" />
            <Array as="points">
              <mxPoint x="250" y="150" />
              <mxPoint x="280" y="160" />
            </Array>
          </mxGeometry>
        </mxCell>
        <mxCell id="lown9K5yKBKj89JTiUl6-135" value="" style="aspect=fixed;perimeter=ellipsePerimeter;html=1;align=center;shadow=0;dashed=0;image;image=img/lib/ibm/applications/microservice.svg;labelBackgroundColor=#ffffff;strokeColor=#666666;strokeWidth=3;fillColor=#C2952D;gradientColor=none;fontSize=12;fontColor=#4277BB;" parent="lown9K5yKBKj89JTiUl6-100" vertex="1">
          <mxGeometry x="641.0000000000002" y="211" width="82" height="60" as="geometry" />
        </mxCell>
        <mxCell id="lown9K5yKBKj89JTiUl6-136" value="Background&lt;br&gt;Service 1" style="text;html=1;align=center;verticalAlign=top;fontColor=#4277BB;shadow=0;dashed=0;strokeColor=none;fillColor=none;labelBackgroundColor=none;fontStyle=0;fontSize=14;spacingLeft=5;" parent="lown9K5yKBKj89JTiUl6-100" vertex="1">
          <mxGeometry x="640.9999999999999" y="270" width="83.38" height="20" as="geometry" />
        </mxCell>
        <mxCell id="lown9K5yKBKj89JTiUl6-137" value="" style="aspect=fixed;perimeter=ellipsePerimeter;html=1;align=center;shadow=0;dashed=0;image;image=img/lib/ibm/applications/microservice.svg;labelBackgroundColor=#ffffff;strokeColor=#666666;strokeWidth=3;fillColor=#C2952D;gradientColor=none;fontSize=12;fontColor=#4277BB;" parent="lown9K5yKBKj89JTiUl6-100" vertex="1">
          <mxGeometry x="783.0000000000002" y="214" width="82" height="60" as="geometry" />
        </mxCell>
        <mxCell id="lown9K5yKBKj89JTiUl6-138" value="Background&lt;br&gt;Service 2" style="text;html=1;align=center;verticalAlign=top;fontColor=#4277BB;shadow=0;dashed=0;strokeColor=none;fillColor=none;labelBackgroundColor=none;fontStyle=0;fontSize=14;spacingLeft=5;" parent="lown9K5yKBKj89JTiUl6-100" vertex="1">
          <mxGeometry x="772.6199999999999" y="268" width="83.38" height="20" as="geometry" />
        </mxCell>
        <mxCell id="lown9K5yKBKj89JTiUl6-139" value="" style="aspect=fixed;perimeter=ellipsePerimeter;html=1;align=center;shadow=0;dashed=0;image;image=img/lib/ibm/applications/microservice.svg;labelBackgroundColor=#ffffff;strokeColor=#666666;strokeWidth=3;fillColor=#C2952D;gradientColor=none;fontSize=12;fontColor=#4277BB;" parent="lown9K5yKBKj89JTiUl6-100" vertex="1">
          <mxGeometry x="932.0000000000002" y="215" width="82" height="60" as="geometry" />
        </mxCell>
        <mxCell id="lown9K5yKBKj89JTiUl6-140" value="Background&lt;br&gt;Service N" style="text;html=1;align=center;verticalAlign=top;fontColor=#4277BB;shadow=0;dashed=0;strokeColor=none;fillColor=none;labelBackgroundColor=none;fontStyle=0;fontSize=14;spacingLeft=5;" parent="lown9K5yKBKj89JTiUl6-100" vertex="1">
          <mxGeometry x="911" y="275" width="83.38" height="20" as="geometry" />
        </mxCell>
        <mxCell id="lown9K5yKBKj89JTiUl6-232" value="" style="html=1;dashed=0;whitespace=wrap;fillColor=#2875E2;strokeColor=#ffffff;points=[[0.005,0.63,0],[0.1,0.2,0],[0.9,0.2,0],[0.5,0,0],[0.995,0.63,0],[0.72,0.99,0],[0.5,1,0],[0.28,0.99,0]];shape=mxgraph.kubernetes.icon;prIcon=api;labelBackgroundColor=#ffffff;" parent="lown9K5yKBKj89JTiUl6-100" vertex="1">
          <mxGeometry x="60" y="212" width="100" height="75" as="geometry" />
        </mxCell>
        <mxCell id="lown9K5yKBKj89JTiUl6-234" value="&lt;div style=&quot;text-align: center&quot;&gt;Web Apps &amp;amp; API 1&lt;/div&gt;" style="text;html=1;align=left;verticalAlign=top;fontColor=#4277BB;shadow=0;dashed=0;strokeColor=none;fillColor=none;labelBackgroundColor=none;fontStyle=0;fontSize=14;spacingLeft=5;" parent="lown9K5yKBKj89JTiUl6-100" vertex="1">
          <mxGeometry x="52" y="285" width="83.38" height="20" as="geometry" />
        </mxCell>
        <mxCell id="lown9K5yKBKj89JTiUl6-237" value="" style="html=1;dashed=0;whitespace=wrap;fillColor=#2875E2;strokeColor=#ffffff;points=[[0.005,0.63,0],[0.1,0.2,0],[0.9,0.2,0],[0.5,0,0],[0.995,0.63,0],[0.72,0.99,0],[0.5,1,0],[0.28,0.99,0]];shape=mxgraph.kubernetes.icon;prIcon=api;labelBackgroundColor=#ffffff;" parent="lown9K5yKBKj89JTiUl6-100" vertex="1">
          <mxGeometry x="211" y="212" width="100" height="75" as="geometry" />
        </mxCell>
        <mxCell id="lown9K5yKBKj89JTiUl6-238" value="&lt;div style=&quot;text-align: center&quot;&gt;Web Apps &amp;amp; API 2&lt;/div&gt;" style="text;html=1;align=left;verticalAlign=top;fontColor=#4277BB;shadow=0;dashed=0;strokeColor=none;fillColor=none;labelBackgroundColor=none;fontStyle=0;fontSize=14;spacingLeft=5;" parent="lown9K5yKBKj89JTiUl6-100" vertex="1">
          <mxGeometry x="203" y="285" width="83.38" height="20" as="geometry" />
        </mxCell>
        <mxCell id="lown9K5yKBKj89JTiUl6-239" value="" style="html=1;dashed=0;whitespace=wrap;fillColor=#2875E2;strokeColor=#ffffff;points=[[0.005,0.63,0],[0.1,0.2,0],[0.9,0.2,0],[0.5,0,0],[0.995,0.63,0],[0.72,0.99,0],[0.5,1,0],[0.28,0.99,0]];shape=mxgraph.kubernetes.icon;prIcon=api;labelBackgroundColor=#ffffff;" parent="lown9K5yKBKj89JTiUl6-100" vertex="1">
          <mxGeometry x="378" y="211" width="100" height="75" as="geometry" />
        </mxCell>
        <mxCell id="lown9K5yKBKj89JTiUl6-240" value="&lt;div style=&quot;text-align: center&quot;&gt;Web Apps &amp;amp; API N&lt;/div&gt;" style="text;html=1;align=left;verticalAlign=top;fontColor=#4277BB;shadow=0;dashed=0;strokeColor=none;fillColor=none;labelBackgroundColor=none;fontStyle=0;fontSize=14;spacingLeft=5;" parent="lown9K5yKBKj89JTiUl6-100" vertex="1">
          <mxGeometry x="370" y="284" width="83.38" height="20" as="geometry" />
        </mxCell>
        <mxCell id="lown9K5yKBKj89JTiUl6-338" value="" style="endArrow=none;html=1;entryX=0.75;entryY=0;entryDx=0;entryDy=0;" parent="lown9K5yKBKj89JTiUl6-100" edge="1">
          <mxGeometry width="50" height="50" relative="1" as="geometry">
            <mxPoint x="260.88" y="390" as="sourcePoint" />
            <mxPoint x="260.41499999999985" y="284" as="targetPoint" />
          </mxGeometry>
        </mxCell>
        <mxCell id="lown9K5yKBKj89JTiUl6-339" value="" style="endArrow=none;html=1;entryX=0.75;entryY=0;entryDx=0;entryDy=0;" parent="lown9K5yKBKj89JTiUl6-100" edge="1">
          <mxGeometry width="50" height="50" relative="1" as="geometry">
            <mxPoint x="427.8800000000001" y="390" as="sourcePoint" />
            <mxPoint x="427.41499999999996" y="284" as="targetPoint" />
          </mxGeometry>
        </mxCell>
        <mxCell id="lown9K5yKBKj89JTiUl6-341" value="" style="endArrow=none;html=1;entryX=0.75;entryY=0;entryDx=0;entryDy=0;" parent="lown9K5yKBKj89JTiUl6-100" edge="1">
          <mxGeometry width="50" height="50" relative="1" as="geometry">
            <mxPoint x="817.4100000000001" y="391" as="sourcePoint" />
            <mxPoint x="817.4150000000002" y="271" as="targetPoint" />
          </mxGeometry>
        </mxCell>
        <mxCell id="lown9K5yKBKj89JTiUl6-342" value="" style="endArrow=none;html=1;entryX=0.75;entryY=0;entryDx=0;entryDy=0;" parent="lown9K5yKBKj89JTiUl6-100" edge="1">
          <mxGeometry width="50" height="50" relative="1" as="geometry">
            <mxPoint x="966" y="391" as="sourcePoint" />
            <mxPoint x="966.0049999999999" y="274" as="targetPoint" />
          </mxGeometry>
        </mxCell>
        <mxCell id="lown9K5yKBKj89JTiUl6-205" value="" style="swimlane;shadow=0;strokeColor=#d79b00;fillColor=#ffe6cc;align=right;startSize=0;collapsible=0;strokeWidth=1;" parent="21" vertex="1">
          <mxGeometry x="685" y="610" width="255" height="249.66" as="geometry" />
        </mxCell>
        <mxCell id="lown9K5yKBKj89JTiUl6-206" value="RabbitMQ Cluster" style="text;html=1;align=left;verticalAlign=top;fontColor=#4277BB;shadow=0;dashed=0;strokeColor=none;fillColor=none;labelBackgroundColor=none;fontStyle=0;fontSize=14;spacingLeft=5;" parent="lown9K5yKBKj89JTiUl6-205" vertex="1">
          <mxGeometry x="7.105427357601002e-15" width="181" height="24" as="geometry" />
        </mxCell>
        <mxCell id="lown9K5yKBKj89JTiUl6-207" value="" style="points=[[0,0,0],[0.25,0,0],[0.5,0,0],[0.75,0,0],[1,0,0],[0,1,0],[0.25,1,0],[0.5,1,0],[0.75,1,0],[1,1,0],[0,0.25,0],[0,0.5,0],[0,0.75,0],[1,0.25,0],[1,0.5,0],[1,0.75,0]];outlineConnect=0;fontColor=#232F3E;gradientColor=#F34482;gradientDirection=north;fillColor=#BC1356;strokeColor=#ffffff;dashed=0;verticalLabelPosition=bottom;verticalAlign=top;align=center;html=1;fontSize=12;fontStyle=0;aspect=fixed;shape=mxgraph.aws4.resourceIcon;resIcon=mxgraph.aws4.sqs;labelBackgroundColor=#ffffff;" parent="lown9K5yKBKj89JTiUl6-205" vertex="1">
          <mxGeometry x="98.5" y="42" width="58" height="58" as="geometry" />
        </mxCell>
        <mxCell id="lown9K5yKBKj89JTiUl6-208" value="" style="points=[[0,0,0],[0.25,0,0],[0.5,0,0],[0.75,0,0],[1,0,0],[0,1,0],[0.25,1,0],[0.5,1,0],[0.75,1,0],[1,1,0],[0,0.25,0],[0,0.5,0],[0,0.75,0],[1,0.25,0],[1,0.5,0],[1,0.75,0]];outlineConnect=0;fontColor=#232F3E;gradientColor=#F34482;gradientDirection=north;fillColor=#BC1356;strokeColor=#ffffff;dashed=0;verticalLabelPosition=bottom;verticalAlign=top;align=center;html=1;fontSize=12;fontStyle=0;aspect=fixed;shape=mxgraph.aws4.resourceIcon;resIcon=mxgraph.aws4.sqs;labelBackgroundColor=#ffffff;" parent="lown9K5yKBKj89JTiUl6-205" vertex="1">
          <mxGeometry x="98.5" y="168" width="58" height="58" as="geometry" />
        </mxCell>
        <mxCell id="lown9K5yKBKj89JTiUl6-209" value="" style="shape=doubleArrow;whiteSpace=wrap;html=1;arrowWidth=0.4;arrowSize=0.3;dashed=0;fontColor=#232F3E;fontStyle=0;verticalAlign=top;strokeColor=#ffffff;fillColor=#BC1356;gradientColor=#F34482;gradientDirection=north;labelBackgroundColor=#ffffff;rotation=90;" parent="lown9K5yKBKj89JTiUl6-205" vertex="1">
          <mxGeometry x="93.75" y="123.25" width="67.5" height="21" as="geometry" />
        </mxCell>
        <mxCell id="lown9K5yKBKj89JTiUl6-222" value="" style="swimlane;shadow=0;strokeColor=#d79b00;fillColor=#ffe6cc;align=right;startSize=0;collapsible=0;strokeWidth=1;" parent="21" vertex="1">
          <mxGeometry x="1225" y="610" width="255" height="249.66" as="geometry" />
        </mxCell>
        <mxCell id="lown9K5yKBKj89JTiUl6-223" value="Databases" style="text;html=1;align=left;verticalAlign=top;fontColor=#4277BB;shadow=0;dashed=0;strokeColor=none;fillColor=none;labelBackgroundColor=none;fontStyle=0;fontSize=14;spacingLeft=5;" parent="lown9K5yKBKj89JTiUl6-222" vertex="1">
          <mxGeometry x="7.105427357601002e-15" width="181" height="24" as="geometry" />
        </mxCell>
        <mxCell id="lown9K5yKBKj89JTiUl6-231" value="" style="aspect=fixed;html=1;points=[];align=center;image;fontSize=12;image=img/lib/azure2/databases/Cache_Redis.svg;labelBackgroundColor=#ffffff;" parent="lown9K5yKBKj89JTiUl6-222" vertex="1">
          <mxGeometry x="60.42" y="59" width="134.15" height="109" as="geometry" />
        </mxCell>
        <mxCell id="lown9K5yKBKj89JTiUl6-229" value="" style="points=[];aspect=fixed;html=1;align=center;shadow=0;dashed=0;image;image=img/lib/allied_telesis/storage/Datacenter_Server_Rack_Storage_Unit_Small.svg;labelBackgroundColor=#ffffff;" parent="21" vertex="1">
          <mxGeometry x="1047" y="761" width="77.4" height="67.2" as="geometry" />
        </mxCell>
        <mxCell id="lown9K5yKBKj89JTiUl6-291" value="" style="swimlane;shadow=0;strokeColor=#000000;fillColor=#ffe6cc;align=right;startSize=0;collapsible=0;strokeWidth=1;" parent="21" vertex="1">
          <mxGeometry x="390" y="30" width="1120" height="860" as="geometry" />
        </mxCell>
        <mxCell id="lown9K5yKBKj89JTiUl6-336" value="" style="endArrow=none;html=1;" parent="lown9K5yKBKj89JTiUl6-291" edge="1">
          <mxGeometry width="50" height="50" relative="1" as="geometry">
            <mxPoint x="136" y="421" as="sourcePoint" />
            <mxPoint x="206" y="421" as="targetPoint" />
            <Array as="points">
              <mxPoint x="996" y="421" />
            </Array>
          </mxGeometry>
        </mxCell>
        <mxCell id="lown9K5yKBKj89JTiUl6-101" value="VPN" style="text;html=1;align=left;verticalAlign=top;fontColor=#4277BB;shadow=0;dashed=0;strokeColor=none;fillColor=none;labelBackgroundColor=none;fontStyle=0;fontSize=14;spacingLeft=5;" parent="lown9K5yKBKj89JTiUl6-291" vertex="1">
          <mxGeometry y="-0.6900000000000013" width="120" height="26" as="geometry" />
        </mxCell>
        <mxCell id="lown9K5yKBKj89JTiUl6-144" style="edgeStyle=orthogonalEdgeStyle;html=1;labelBackgroundColor=#ffffff;startArrow=classic;startFill=1;startSize=4;endArrow=classic;endFill=1;endSize=4;jettySize=auto;orthogonalLoop=1;strokeWidth=2;fontSize=19;fontColor=#CC99FF;elbow=vertical;fillColor=#e1d5e7;strokeColor=#9673a6;rounded=0;curved=1;" parent="1" edge="1">
          <mxGeometry relative="1" as="geometry">
            <mxPoint x="720" y="180" as="targetPoint" />
            <Array as="points">
              <mxPoint x="420" y="311" />
              <mxPoint x="420" y="180" />
            </Array>
            <mxPoint x="330" y="311" as="sourcePoint" />
          </mxGeometry>
        </mxCell>
        <mxCell id="lown9K5yKBKj89JTiUl6-217" value="" style="swimlane;shadow=0;strokeColor=#d79b00;fillColor=#ffe6cc;align=right;startSize=0;collapsible=0;strokeWidth=1;" parent="1" vertex="1">
          <mxGeometry x="1020" y="660" width="255" height="249.66" as="geometry" />
        </mxCell>
        <mxCell id="lown9K5yKBKj89JTiUl6-218" value="File Storage" style="text;html=1;align=left;verticalAlign=top;fontColor=#4277BB;shadow=0;dashed=0;strokeColor=none;fillColor=none;labelBackgroundColor=none;fontStyle=0;fontSize=14;spacingLeft=5;" parent="lown9K5yKBKj89JTiUl6-217" vertex="1">
          <mxGeometry x="7.105427357601002e-15" width="181" height="24" as="geometry" />
        </mxCell>
        <mxCell id="lown9K5yKBKj89JTiUl6-228" value="" style="points=[];aspect=fixed;html=1;align=center;shadow=0;dashed=0;image;image=img/lib/allied_telesis/storage/Datacenter_Server_Rack_Storage_Unit_Small.svg;labelBackgroundColor=#ffffff;" parent="lown9K5yKBKj89JTiUl6-217" vertex="1">
          <mxGeometry x="82" y="41" width="77.4" height="67.2" as="geometry" />
        </mxCell>
        <mxCell id="lown9K5yKBKj89JTiUl6-230" value="" style="endArrow=none;dashed=1;html=1;" parent="1" source="lown9K5yKBKj89JTiUl6-229" target="lown9K5yKBKj89JTiUl6-228" edge="1">
          <mxGeometry width="50" height="50" relative="1" as="geometry">
            <mxPoint x="1130" y="810" as="sourcePoint" />
            <mxPoint x="1150" y="770" as="targetPoint" />
          </mxGeometry>
        </mxCell>
        <mxCell id="lown9K5yKBKj89JTiUl6-337" value="" style="endArrow=none;html=1;entryX=0.75;entryY=0;entryDx=0;entryDy=0;" parent="1" edge="1">
          <mxGeometry width="50" height="50" relative="1" as="geometry">
            <mxPoint x="590" y="500" as="sourcePoint" />
            <mxPoint x="589.5349999999999" y="394" as="targetPoint" />
          </mxGeometry>
        </mxCell>
        <mxCell id="lown9K5yKBKj89JTiUl6-340" value="" style="endArrow=none;html=1;entryX=0.75;entryY=0;entryDx=0;entryDy=0;" parent="1" edge="1">
          <mxGeometry width="50" height="50" relative="1" as="geometry">
            <mxPoint x="1160" y="501" as="sourcePoint" />
            <mxPoint x="1160.0049999999999" y="381" as="targetPoint" />
          </mxGeometry>
        </mxCell>
        <mxCell id="lown9K5yKBKj89JTiUl6-344" value="" style="endArrow=none;html=1;" parent="1" edge="1">
          <mxGeometry width="50" height="50" relative="1" as="geometry">
            <mxPoint x="860.4700000000003" y="660" as="sourcePoint" />
            <mxPoint x="860" y="500" as="targetPoint" />
          </mxGeometry>
        </mxCell>
        <mxCell id="lown9K5yKBKj89JTiUl6-345" value="" style="endArrow=none;html=1;" parent="1" edge="1">
          <mxGeometry width="50" height="50" relative="1" as="geometry">
            <mxPoint x="1120.4700000000003" y="660" as="sourcePoint" />
            <mxPoint x="1120" y="500" as="targetPoint" />
          </mxGeometry>
        </mxCell>
        <mxCell id="lown9K5yKBKj89JTiUl6-346" value="" style="endArrow=none;html=1;" parent="1" edge="1">
          <mxGeometry width="50" height="50" relative="1" as="geometry">
            <mxPoint x="1400.4700000000003" y="660" as="sourcePoint" />
            <mxPoint x="1400" y="500" as="targetPoint" />
          </mxGeometry>
        </mxCell>
      </root>
    </mxGraphModel>
  </diagram>
</mxfile>
